# xmcd
#
# Track frame offsets:
#	150
#	14880
#	30425
#	45472
#	62335
#
# Disc length: 1030 seconds
#
# Revision: 0
# Processed by: cddbd v1.4PL0 Copyright (c) Steve Scherf et al.
# Submitted via: audiograbber 1.81.03
#
DISCID=35040405
DTITLE=Razzle Dazzle - Pick Up The Fiddle (Pluck That Banjo) [MCD]
DYEAR=2001
DGENRE=Country
TTITLE0=Pick Up The Fiddle (Radio Version)
TTITLE1=Pick Up The Fiddle (Original Version)
TTITLE2=Pick Up The Fiddle (Freak N'Fiddle)
TTITLE3=Pick Up The Fiddle (Long Version)
TTITLE4=Pick Up The Fiddle (Instrumental)
EXTD=
EXTT0=
EXTT1=
EXTT2=
EXTT3=
EXTT4=
PLAYORDER=
